<svg width="81" height="103" viewBox="0 0 81 103" fill="none" xmlns="http://www.w3.org/2000/svg">
<path fill-rule="evenodd" clip-rule="evenodd" d="M100.054 102.608C100.574 102.139 100.615 101.336 100.145 100.815L42.294 36.5644C41.8242 36.0425 41.0216 35.9993 40.5014 36.4676C39.9812 36.936 39.9404 37.7387 40.4103 38.2606L98.2614 102.511C98.7312 103.033 99.5339 103.076 100.054 102.608ZM98.1398 87.2224C98.6599 86.754 98.7008 85.9513 98.2309 85.4294L48.8873 30.6278C48.4174 30.1059 47.6148 30.0627 47.0946 30.531C46.5745 30.9994 46.5336 31.8021 47.0035 32.324L96.3471 87.1256C96.817 87.6474 97.6196 87.6907 98.1398 87.2224ZM96.2255 71.8372C96.7456 71.3689 96.7865 70.5661 96.3166 70.0443L55.4805 24.6912C55.0107 24.1694 54.2081 24.1261 53.6879 24.5944C53.1677 25.0628 53.1269 25.8655 53.5968 26.3874L94.4328 71.7404C94.9027 72.2623 95.7053 72.3056 96.2255 71.8372ZM94.3112 56.4521C94.8314 55.9837 94.8722 55.181 94.4024 54.6591L62.0738 18.7546C61.6039 18.2328 60.8013 18.1895 60.2812 18.6579C59.761 19.1262 59.7201 19.9289 60.19 20.4508L92.5186 56.3553C92.9885 56.8772 93.7911 56.9204 94.3112 56.4521ZM92.397 41.0669C92.9171 40.5986 92.958 39.7958 92.4881 39.274L68.667 12.818C68.1972 12.2962 67.3946 12.2529 66.8744 12.7213C66.3542 13.1896 66.3134 13.9923 66.7833 14.5142L90.6043 40.9702C91.0742 41.492 91.8768 41.5353 92.397 41.0669ZM90.4827 25.6818C91.0028 25.2134 91.0437 24.4107 90.5738 23.8888L75.2603 6.88145C74.7904 6.35959 73.9878 6.31632 73.4677 6.78467C72.9475 7.25302 72.9066 8.05576 73.3765 8.57761L88.69 25.585C89.1599 26.1069 89.9625 26.1501 90.4827 25.6818ZM88.6596 8.5037C89.1294 9.02555 89.0886 9.82829 88.5684 10.2966C88.0483 10.765 87.2456 10.7217 86.7758 10.1999L79.9698 2.64102C79.4999 2.11917 79.5407 1.31643 80.0609 0.848083C80.5811 0.379732 81.3837 0.423002 81.8535 0.944857L88.6596 8.5037ZM7.65677 81.4389C8.12664 81.9608 8.92926 82.0041 9.44941 81.5357C9.96957 81.0674 10.0104 80.2646 9.54055 79.7428L2.73454 72.1839C2.26466 71.6621 1.46206 71.6188 0.941896 72.0872C0.421742 72.5555 0.380877 73.3582 0.850757 73.8801L7.65677 81.4389ZM22.7575 84.9509C23.2274 85.4728 24.03 85.516 24.5502 85.0477C25.0703 84.5793 25.1112 83.7766 24.6413 83.2547L9.32779 66.2473C8.85791 65.7255 8.05531 65.6822 7.53515 66.1506C7.01499 66.6189 6.97413 67.4217 7.44401 67.9435L22.7575 84.9509ZM37.8583 88.4629C38.3282 88.9847 39.1308 89.028 39.651 88.5596C40.1711 88.0913 40.212 87.2886 39.7421 86.7667L15.921 60.3107C15.4512 59.7889 14.6486 59.7456 14.1284 60.214C13.6082 60.6823 13.5674 61.4851 14.0373 62.0069L37.8583 88.4629ZM52.9591 91.9748C53.429 92.4967 54.2316 92.54 54.7517 92.0716C55.2719 91.6033 55.3127 90.8005 54.8429 90.2787L22.5143 54.3742C22.0444 53.8523 21.2418 53.809 20.7216 54.2774C20.2015 54.7457 20.1606 55.5485 20.6305 56.0703L52.9591 91.9748ZM68.0598 95.4868C68.5297 96.0087 69.3323 96.0519 69.8525 95.5836C70.3726 95.1152 70.4135 94.3125 69.9436 93.7906L29.1075 48.4376C28.6377 47.9157 27.8351 47.8724 27.3149 48.3408C26.7947 48.8092 26.7539 49.6119 27.2238 50.1337L68.0598 95.4868ZM83.1606 98.9988C83.6305 99.5206 84.4331 99.5639 84.9533 99.0955C85.4734 98.6272 85.5143 97.8245 85.0444 97.3026L35.7008 42.501C35.2309 41.9791 34.4283 41.9359 33.9081 42.4042C33.388 42.8726 33.3471 43.6753 33.817 44.1971L83.1606 98.9988Z" fill="white"/>
</svg>
